<?xml version="1.0" encoding="UTF-8"?>
<svg id="Layer_1" data-name="Layer 1" xmlns="http://www.w3.org/2000/svg" viewBox="0 0 352.7983398 53.1381836">
  <defs>
    <style>
      .cls-1 {
        fill: #d91f26;
      }

      .cls-2 {
        fill: #231f20;
      }
    </style>
  </defs>
  <path class="cls-2" d="m53.284668,51.9858398h-8.5688477V12.4545898l-14.2573242,39.53125h-7.3442383L8.496582,12.4545898v39.53125H0V.7172852h12.6010742l14.3291016,40.1074219L40.7553711.7172852h12.5292969v51.2685547Z"/>
  <path class="cls-2" d="m93.6738281,19.0791016c3.3603516,3.5522461,5.0405273,8.3286133,5.0405273,14.3295898,0,6.0478516-1.6679688,10.8486328-5.0043945,14.4003906-3.3364258,3.5527344-7.8608398,5.3291016-13.5732422,5.3291016-5.8085938,0-10.4169922-1.7763672-13.8251953-5.3291016-3.4082031-3.5517578-5.1123047-8.3525391-5.1123047-14.4003906,0-6.0009766,1.7163086-10.7773438,5.1484375-14.3295898s8.0288086-5.3286133,13.7890625-5.3286133c5.6645508,0,10.1767578,1.7763672,13.5371094,5.3286133Zm-21.3857422,4.6801758c-1.8720703,2.3525391-2.8081055,5.5683594-2.8081055,9.6494141,0,4.1757812.9360352,7.4404297,2.8081055,9.7929688,1.8720703,2.3515625,4.4643555,3.5273438,7.7768555,3.5273438,3.2163086,0,5.7485352-1.1875,7.5966797-3.5644531,1.8481445-2.375,2.7719727-5.6523438,2.7719727-9.828125,0-4.0800781-.9238281-7.284668-2.7719727-9.6132812-1.8481445-2.328125-4.4047852-3.4921875-7.6689453-3.4921875s-5.8325195,1.1762695-7.7045898,3.5283203Z"/>
  <path class="cls-1" d="m133.4702008,23.6868268c2.9057422,3.0716761,4.3586133,7.2018665,4.3586133,12.3909935,0,5.2296605-1.4423155,9.380962-4.3273688,12.4522159-2.8850533,3.0720983-6.7973764,4.6081474-11.7369693,4.6081474-5.0227709,0-9.0077165-1.5360491-11.9548366-4.6081474-2.9471201-3.0712538-4.4206802-7.2225554-4.4206802-12.4522159,0-5.189127,1.4841157-9.3193174,4.4519247-12.3909935s6.9426213-4.6077252,11.9235921-4.6077252c4.898215,0,8.7999825,1.5360491,11.7057247,4.6077252Zm-18.4925455,4.0470124c-1.618805,2.0342729-2.4282074,4.815037-2.4282074,8.3439811,0,3.6108555.8094025,6.4338419,2.4282074,8.4681148,1.618805,2.0334284,3.8603896,3.0501427,6.7247539,3.0501427,2.7811863,0,4.9708374-1.0268476,6.5689534-3.0822317,1.598116-2.0536952,2.3969629-4.8876594,2.3969629-8.4985149,0-3.5280997-.7988469-6.2991526-2.3969629-8.3127366-1.598116-2.0131617-3.8088783-3.0197426-6.6314425-3.0197426s-5.0434599,1.0171364-6.6622648,3.0509871Z"/>
  <path class="cls-2" d="m152.2797852,19.8017578c2.9765625-4.3203125,7.0805664-6.4804688,12.3129883-6.4804688,4.2246094,0,7.3813477,1.1518555,9.4692383,3.4560547s3.1318359,5.6166992,3.1318359,9.9370117v24.7700195h-8.2084961v-21.6025391c0-1.4873047-.0717773-2.7236328-.2158203-3.7075195-.144043-.984375-.4443359-1.9804688-.9003906-2.9882812-.4560547-1.0083008-1.1879883-1.7641602-2.1962891-2.2680664-1.0078125-.5043945-2.3041992-.7563477-3.8881836-.7563477-6.0483398,0-9.0727539,3.7685547-9.0727539,11.3051758v20.0175781h-8.2084961V14.3291016h7.7763672v5.4726562Z"/>
  <path class="cls-2" d="m194.1831055,51.484375h-8.1367188V.2158203h8.1367188v51.2685547Z"/>
  <path class="cls-2" d="m211.534668,8.0644531h-8.2089844V0h8.2089844v8.0644531Zm0,43.4199219h-8.2089844V14.3291016h8.2089844v37.1552734Z"/>
  <path class="cls-2" d="m239.1831055,27.9384766l15.5537109,23.5458984h-10.0087891l-11.3056641-17.9296875-4.8964844,4.6083984v13.3212891h-7.9921875V.2158203h7.9921875v28.875l14.8339844-14.7617188h10.0800781l-14.2568359,13.609375Z"/>
  <path class="cls-2" d="m286.4506836,49.3242188c-3.0478516,2.2568359-6.6845703,3.3837891-10.9082031,3.3837891-5.6171875,0-10.0693359-1.8115234-13.3574219-5.4355469-3.2880859-3.625-4.9326172-8.2695312-4.9326172-13.9335938,0-5.8085938,1.6923828-10.6088867,5.0761719-14.4013672,3.3847656-3.7924805,7.6933594-5.6884766,12.9257812-5.6884766,5.4238281,0,9.7207031,1.8603516,12.8886719,5.5805664s4.7519531,8.7963867,4.7519531,15.2299805v.8632812h-27.4335938c.0957031,3.7441406,1.0322266,6.6367188,2.8076172,8.6767578,1.7763672,2.0400391,4.2490234,3.0605469,7.4169922,3.0605469,2.2558594,0,4.0927734-.5400391,5.5087891-1.6201172s2.5322266-2.796875,3.3476562-5.1484375h7.8486328c-.9121094,4.0322266-2.8916016,7.1757812-5.9404297,9.4326172Zm-4.6796875-27.2543945c-1.7050781-1.800293-3.9003906-2.7001953-6.5888672-2.7001953s-4.8603516.8642578-6.5166016,2.5922852-2.6767578,4.2241211-3.0605469,7.4882812h19.0820312c-.2402344-3.1201172-1.2119141-5.5800781-2.9160156-7.3803711Z"/>
  <path class="cls-2" d="m309.7416992,51.484375h-9.7929688v-9.7207031h9.7929688v9.7207031Z"/>
  <path class="cls-2" d="m316.7954102,47.8837891h36.0029297v3.6005859h-36.0029297v-3.6005859Z"/>
</svg>